<svg width="16" height="16" viewBox="0 0 16 16" fill="none" xmlns="http://www.w3.org/2000/svg">
<path fill-rule="evenodd" clip-rule="evenodd" d="M1.1819 13.8921C0.869522 14.2046 0.869522 14.7112 1.1819 15.0237C1.49427 15.3361 2.00073 15.3361 2.31311 15.0237L7.99859 9.33656L13.6843 15.0239C13.9967 15.3364 14.5032 15.3364 14.8155 15.0239C15.1279 14.7115 15.1279 14.2049 14.8155 13.8924L9.1298 8.20503L15.0171 2.31608C15.3294 2.00361 15.3294 1.49701 15.0171 1.18454C14.7047 0.87208 14.1982 0.872079 13.8859 1.18454L7.99859 7.07349L2.11158 1.1848C1.79921 0.87234 1.29275 0.87234 0.980375 1.1848C0.668 1.49727 0.668 2.00387 0.980375 2.31634L6.86738 8.20503L1.1819 13.8921Z" fill="#ACACAC"/>
</svg>
